<?xml version="1.0" encoding="UTF-8"?>
<svg id="Layer_1" data-name="Layer 1" xmlns="http://www.w3.org/2000/svg" viewBox="0 0 2848 1720">
  <defs>
    <style>
      .cls-1 {
        fill: #303030;
        stroke-width: 0px;
      }
    </style>
  </defs>
  <path class="cls-1" d="M1341.12,837.88c2.22-2.01,4.35-4.13,6.35-6.32l11.04-12.07,2.09,4.21,11.42-13.27,3.91,2.02c-.02-.07-.03-.13-.03-.13l.14.18.39.2,1.96-1.9v-8.05l1.91,3.35c-.16-7.01,3.47-11.77,3.47-11.77,0,0,1.86.85,9.12,1.62,7.26.77,9.73.15,9.42,1.54-.31,1.39-1.39,4.63-1.88,7.88-.49,3.24,0,6.95,0,6.95v7.1s2.93,5.15,2.9,5.61c-.03.46,1.77-1.59,2.08-3.14.31-1.54-.15,3.86-.31,4.32-.15.46,3.86-3.71,4.32-5.1.46-1.39.46,3.4.46,3.4,0,0,2.01-3.55,2.01-4.17s1.24,3.4,1.24,4.17,1.54-2.47,1.54-2.47c0,0,2.32-.15,3.09,3.55.26,1.25.38,2.31.31,3.32,2.04.39,4.42,1.36,6.68,3.53.7.67,1.4,1.35,2.09,2.04l2.43,2.37c-.4-5.04,1.55-14.46,1.63-16.48.26,1.52,1.34,6.79,1.22,7.54-.15.93,2.32-6.18,2.32-6.95s.77,3.86.77,5.71,1.08-1.54,1.08-3.71,1.08-2.47,2.93.93c1.85,3.4,0,8.18-1.54,14.98-1.54,6.79,1.08,3.24,2.01,3.09.63-.11,2.14.36,4.45.92,1.87-1.27,4.1-1.98,6.42-1.98.33,0,.66.01.99.04,1.56.1,3.07.52,4.45,1.21.07-1.52-.96-4.52-2.57-8.69-1.85-4.79-.77-18.22-.77-18.68s1.54,4.01,2.01,5.56c.46,1.54,1.24-4.48.93-6.33-.31-1.85,1.08,4.79,1.24,5.71.15.93,2.47-5.25,2.32-6.33-.15-1.08.77,4.94.77,5.4s2.63-6.33,2.63-6.33c0,0,.62,4.17.62,4.63s.46-7.57.46-7.57l2.01,5.56-.93-6.33,2.47-1.85.31-13.28,4.02,2.01s2.63-4.79,5.87-10.19c3.24-5.4,7.72-9.11,7.72-9.11l-1.7.46s-1.54-.15,2.62-4.17c6.02-6.49,6.79-16.21,6.79-16.21,0,0-2.63,3.71-3.55,3.71,5.71-10.5,4.71-25.17,4.71-25.17l-3.78,5.25,3.24-7.57s.24-1.97.4-4.94c1.49-1.47,3.24-2.78,5.27-3.82,7.86,4.4,6.89.44,4.62,7.73-2.41,7.74,11.63,11.65,11.5,8.09-.12-3.32-.91-11.5,3.82-11.85,2.86-.21,5.91,1.17,8.73.27,3.41-1.1,2.72-5.52,2.98-8.3.19-1.98.52-3.93.65-5.91.22-3.47-1.7-6.1-4.08-8.53,15.92-12.23,31.31-25.15,46.07-38.77-16.22,11.91-31.87,24.57-46.95,37.89-2.65-2.57-5.6-5-6.78-8.09-1.65-4.32.38-3.43-1.02-10.41-1.4-6.98-3.3-7.49-1.27-11.8,2.03-4.32,2.67-14.98-.44-10.41-3.11,4.57-4.93,11.17-4.93,11.17,0,0,.29-32.37-11.51-41.13,3.38,8,2.66,32.88,2.46,38.39-4.19-10.02-13.24-20.05-23.22-24.49,4.43-11.39,7.98-23.12,10.57-35.06-4.77,11.21-8.63,22.8-11.58,34.62-4.76-1.93-9.71-2.55-14.4-1.27,5.33,1.76,9.68,3.91,13.22,6.24-.16.7-.33,1.39-.48,2.09.27-.62.51-1.26.77-1.88,15.04,10.06,15.3,23.32,15.3,23.32l-5.55,3.2c-.79-1.42-1.51-3.53-1.79-6.63-.74-8.33-11.32-12.8-11.32-12.8,0,0-6.73,14.65-3.17,19.22,3.55,4.57,13.96,9.39,13.84,15.87-.1-.4-.61-.88-1.41-1.39-2.61-3.33-5.14-5.86-6.98-7.4-3.71-3.09-22.39-2.78-32.58-2.47-10.19.31-16.99,7.26-16.99,7.26l2.78-3.4s-8.18,3.86-12.66,7.26c-4.48,3.4-13.74,12.2-13.74,12.2l1.54-3.09s-5.71,2.93-16.06,2.78c-10.35-.15-19.92,1.08-19.92,1.08l5.25-1.08-12.51.77c-12.51.77-18.38,7.72-18.38,7.72l1.82-2.78c-4.82.93-16.96,10.5-16.96,10.5l1.85-2.78c-7.57,3.55-10.47,11.16-11.98,11.5-1.52.34-3.28,1.35-3.96,2.86-.67,1.52-.76.84-2.44,1.43-1.68.59-2.36.59-2.36.59l-2.27,1.43s.17.67,1.43,2.19c1.26,1.52,0,0-1.26.67-1.26.67-.08,1.6,1.77,3.28,1.85,1.68-2.61,4.21,1.6,5.14,4.21.93,7.43-7.02,6.04-3.77-1.39,3.24-1.08,6.02-1.08,19.15,6.18,4.94,7.1,11.89,7.1,11.89,0,0,1.7-1.54,0-5.1,5.41,3.71,6.33,15.29,6.33,15.29l.15-4.01c2.93,6.49,1.7,16.52,1.7,16.52l2.47-3.24s-3.71,12.97-10.66,16.37c3.09,1.24,8.49,8.34,8.49,8.34l.15-2.63s4.63,2.63,2.01,12.66c-1.34,1.56-2.15,3.49-2.64,5.31l5.57-4.93,4.75,7.1Z"/>
  <path class="cls-1" d="M983.39,1066.14h-.54c-1.78-16.52-5.64-46.09-9.52-70.69h-38.11v117.83h23.82v-36.86c0-20.42-.52-44.23-1.1-58.08h.88c3.24,23.83,8.14,63.48,12.26,94.93h21.88c5.31-30.24,10.22-70.07,13.68-94.64h.77c-.35,14.22-.64,38.59-.64,56.9v37.74h25.48v-117.83h-37.73c-4.43,27.55-8.86,53.14-11.12,70.69Z"/>
  <path class="cls-1" d="M1086.99,993.29c-27.05,0-40.53,17.99-40.53,59.74s12.12,62.48,39.42,62.48c29.29,0,41.07-18.7,41.07-61.88s-12.19-60.33-39.96-60.33ZM1086.65,1094.22c-9.29,0-11.91-12.1-11.91-41.19,0-27.46,2.58-38.35,11.91-38.35s12.03,10.39,12.03,38.35c0,29.93-2.22,41.19-12.03,41.19Z"/>
  <path class="cls-1" d="M1140.59,1076.95c0,24.36,10.35,38.54,37.66,38.54s38.73-14.31,38.73-38.31v-81.74h-27.2v82.61c0,8.75-1.71,16.22-10.94,16.22s-11.17-8.65-11.17-16.33v-82.5h-27.08v81.5Z"/>
  <path class="cls-1" d="M1279.58,1113.28h29.19v-117.83h-23.91v21.63c0,18.39.37,37.81,1.54,52.63h-.48c-1.21-5.38-5.37-18.73-23.28-74.27h-29.62v117.83h24.02v-22.93c0-19.27-.49-41.1-1.42-55.28h.54c1.32,5.09,4.82,16.96,23.43,78.21Z"/>
  <polygon class="cls-1" points="1392.35 995.45 1318.98 995.45 1318.98 1017.6 1342.22 1017.6 1342.22 1113.28 1369.24 1113.28 1369.24 1017.6 1392.35 1017.6 1392.35 995.45"/>
  <path class="cls-1" d="M1409.4,995.45l-23.25,117.83h27.08l4.01-25.22h21.5l4.13,25.22h28.12l-23.54-117.83h-38.05ZM1420.7,1065.29c2.79-17.2,5.66-35.9,6.82-47.2h.89c1.49,10.83,4.07,30.01,6.75,47.2h-14.45Z"/>
  <rect class="cls-1" x="1479.91" y="995.45" width="27.08" height="117.83"/>
  <path class="cls-1" d="M1576.95,1017.09c0,18.39.37,37.81,1.54,52.63h-.48c-1.21-5.38-5.37-18.73-23.28-74.27h-29.62v117.83h24.02v-22.93c0-19.27-.49-41.1-1.42-55.28h.54c1.32,5.09,4.82,16.96,23.43,78.21h29.19v-117.83h-23.91v21.63Z"/>
  <path class="cls-1" d="M1684.11,1113.28v-64.96h-33.41v11.43h20.58v5.79c0,24.83-3.65,38.2-19.63,38.2s-21.11-20.16-21.11-49.79,5.91-49.5,22.65-49.5,17.63,16.73,17.98,20.94h12.99c-.35-7.09-2.21-32.3-30.62-32.3-24.07,0-36.6,20.29-36.6,61.09,0,34.41,6.72,60.87,32.39,60.87,13.92,0,19.83-6.31,23.72-14.56.06,5.91.41,9.48.82,12.8h10.24Z"/>
  <path class="cls-1" d="M1736.5,993.07c-23.25,0-35.1,19.73-35.1,60.12s10.1,61.84,34.51,61.84c25.65,0,35.28-21.64,35.28-62.06s-10.15-59.91-34.68-59.91ZM1736.32,1103.73c-14.68,0-21.5-17.03-21.5-50.82s6.92-48.47,21.39-48.47,21.56,14.2,21.56,48.7-6.3,50.6-21.45,50.6Z"/>
  <path class="cls-1" d="M1808.25,994.77s-28.62,118.51-28.62,118.52h13l8.62-37.61h30.8l8.73,37.61h13.82l-29.47-118.52h-16.88ZM1803.8,1064.12c5.82-25.45,10.66-46.77,12.28-57.08h.41c1.58,9.44,6.02,27.97,12.9,57.08h-25.6Z"/>
  <polygon class="cls-1" points="1846.94 994.77 1846.94 1006.38 1873.36 1006.38 1873.36 1113.28 1886.36 1113.28 1886.36 1006.38 1912.78 1006.38 1912.78 994.77 1846.94 994.77"/>
  <path class="cls-1" d="M1096.62,1186.86h15.43v11.18c-1.59,1.21-3.54,2.27-5.81,3.16-2.43.94-5.06,1.42-7.82,1.42-2.94,0-5.61-.51-7.94-1.51-2.32-1-4.33-2.41-5.96-4.19-1.64-1.78-2.92-3.92-3.82-6.38-.9-2.47-1.35-5.2-1.35-8.11,0-2.72.47-5.32,1.38-7.74.92-2.41,2.19-4.54,3.79-6.33,1.59-1.78,3.53-3.21,5.77-4.26,2.22-1.04,4.69-1.57,7.33-1.57,1.71,0,3.29.14,4.7.42,1.4.28,2.71.66,3.87,1.14,1.16.48,2.26,1.06,3.27,1.72,1.02.67,2,1.43,2.93,2.26l.76.68,5-5.88-.76-.64c-1.29-1.09-2.62-2.08-3.98-2.94-1.38-.88-2.88-1.63-4.45-2.23-1.58-.6-3.3-1.06-5.12-1.36-1.81-.3-3.82-.45-5.99-.45-3.94,0-7.57.75-10.81,2.23-3.22,1.47-6.02,3.49-8.32,5.99-2.3,2.5-4.1,5.43-5.37,8.72-1.27,3.29-1.91,6.77-1.91,10.35s.62,7.28,1.84,10.56c1.22,3.3,3.02,6.21,5.35,8.67,2.33,2.46,5.17,4.41,8.44,5.81,3.27,1.4,7.02,2.11,11.15,2.11,4.41,0,8.46-.79,12.02-2.36,3.53-1.55,6.56-3.44,8.99-5.62l.33-.3v-21.59h-22.92v7.06Z"/>
  <path class="cls-1" d="M1156.79,1155.76l-24,53.04h8.05l6.01-13.4h26.3l5.94,13.4h8.34l-24-53.04h-6.64ZM1149.98,1188.35l10.05-22.43,9.99,22.43h-20.04Z"/>
  <path class="cls-1" d="M1235.43,1186.26c1.78-.87,3.35-1.97,4.65-3.27,1.32-1.32,2.35-2.89,3.08-4.68.72-1.78,1.09-3.82,1.09-6.06,0-2.41-.47-4.63-1.4-6.62-.93-1.98-2.26-3.71-3.96-5.12-1.68-1.4-3.73-2.5-6.09-3.26-2.34-.75-4.98-1.14-7.87-1.14h-22.79v52.68h7.71v-19.7h12.99l14.7,19.7h9.51l-15.82-21.04c1.48-.36,2.89-.86,4.2-1.5ZM1224.46,1182.05h-14.62v-18.65h14.69c3.87,0,6.89.82,8.97,2.44,2.04,1.59,3.03,3.77,3.03,6.67,0,1.48-.29,2.83-.87,3.99-.58,1.17-1.41,2.17-2.44,2.96-1.06.82-2.35,1.46-3.82,1.91-1.5.45-3.16.68-4.94.68Z"/>
  <path class="cls-1" d="M1280.85,1155.76l-24,53.04h8.05l6.01-13.4h26.3l5.94,13.4h8.34l-24-53.04h-6.64ZM1274.04,1188.35l10.05-22.43,9.99,22.43h-20.04Z"/>
  <path class="cls-1" d="M1346.18,1186.86h15.43v11.18c-1.59,1.21-3.54,2.27-5.81,3.16-2.43.94-5.06,1.42-7.82,1.42-2.94,0-5.61-.51-7.94-1.51-2.32-1-4.33-2.41-5.96-4.19-1.64-1.78-2.92-3.92-3.82-6.38-.9-2.47-1.35-5.2-1.35-8.11,0-2.72.47-5.32,1.38-7.74.92-2.41,2.19-4.54,3.79-6.33,1.59-1.78,3.53-3.21,5.77-4.26,2.22-1.04,4.69-1.57,7.33-1.57,1.71,0,3.29.14,4.7.42,1.4.28,2.71.66,3.87,1.14,1.16.48,2.26,1.06,3.27,1.72,1.02.67,2,1.43,2.92,2.26l.76.68,5-5.88-.76-.64c-1.29-1.09-2.62-2.08-3.98-2.94-1.38-.88-2.88-1.63-4.45-2.23-1.58-.6-3.3-1.06-5.12-1.36-1.81-.3-3.82-.45-5.99-.45-3.94,0-7.57.75-10.81,2.23-3.22,1.47-6.02,3.49-8.32,5.99-2.3,2.5-4.1,5.43-5.37,8.72-1.27,3.29-1.91,6.77-1.91,10.35s.62,7.28,1.84,10.56c1.22,3.3,3.02,6.21,5.35,8.67,2.33,2.46,5.17,4.41,8.44,5.81,3.27,1.4,7.02,2.11,11.15,2.11,4.41,0,8.46-.79,12.02-2.36,3.53-1.55,6.56-3.44,8.99-5.62l.33-.3v-21.59h-22.92v7.06Z"/>
  <polygon class="cls-1" points="1394.95 1185.84 1422.62 1185.84 1422.62 1178.64 1394.95 1178.64 1394.95 1163.32 1425.88 1163.32 1425.88 1156.12 1387.24 1156.12 1387.24 1208.8 1426.24 1208.8 1426.24 1201.6 1394.95 1201.6 1394.95 1185.84"/>
  <path class="cls-1" d="M1510.7,1163.63c-2.47-2.35-5.46-4.21-8.87-5.53-3.41-1.32-7.2-1.99-11.26-1.99h-18.59v52.68h18.59c4.07,0,7.86-.68,11.26-2.02,3.41-1.35,6.4-3.22,8.87-5.56,2.48-2.35,4.42-5.18,5.77-8.41,1.35-3.22,2.03-6.72,2.03-10.41s-.68-7.18-2.03-10.38c-1.35-3.2-3.29-6.02-5.77-8.37ZM1509.17,1190.05c-.93,2.28-2.28,4.3-3.98,6.01-1.7,1.7-3.82,3.05-6.28,4.01-2.48.96-5.28,1.45-8.33,1.45h-10.88v-38.14h10.88c3.05,0,5.85.5,8.32,1.49,2.47.98,4.59,2.35,6.29,4.05,1.71,1.71,3.05,3.75,3.98,6.08.94,2.33,1.41,4.86,1.41,7.52s-.47,5.23-1.41,7.52Z"/>
  <path class="cls-1" d="M1579.93,1163.34c-2.35-2.47-5.2-4.46-8.47-5.91-3.28-1.45-6.96-2.18-10.94-2.18s-7.68.75-10.98,2.22c-3.29,1.47-6.15,3.49-8.5,5.98-2.34,2.49-4.19,5.41-5.49,8.68-1.3,3.26-1.95,6.76-1.95,10.4s.64,7.13,1.91,10.39c1.27,3.27,3.11,6.18,5.46,8.65,2.35,2.47,5.2,4.46,8.47,5.91,3.27,1.45,6.96,2.18,10.94,2.18s7.68-.75,10.98-2.22c3.29-1.47,6.15-3.48,8.5-5.98,2.34-2.49,4.19-5.41,5.49-8.68,1.3-3.26,1.95-6.76,1.95-10.4s-.64-7.13-1.91-10.39c-1.27-3.27-3.11-6.18-5.46-8.65ZM1577.96,1190.32c-.94,2.41-2.25,4.53-3.9,6.31-1.64,1.77-3.64,3.19-5.94,4.22-2.3,1.02-4.86,1.54-7.6,1.54s-5.3-.53-7.59-1.58c-2.31-1.05-4.34-2.49-6.03-4.27-1.69-1.78-3.02-3.91-3.96-6.34-.94-2.43-1.42-5.06-1.42-7.83s.48-5.38,1.42-7.79c.94-2.41,2.25-4.53,3.9-6.31,1.64-1.77,3.64-3.19,5.94-4.22,2.3-1.02,4.85-1.54,7.6-1.54s5.29.53,7.59,1.58c2.31,1.05,4.34,2.49,6.03,4.27,1.69,1.78,3.02,3.91,3.96,6.34.94,2.43,1.42,5.07,1.42,7.82s-.48,5.38-1.42,7.79Z"/>
  <path class="cls-1" d="M1648.73,1163.34c-2.35-2.47-5.2-4.46-8.47-5.91-3.28-1.45-6.96-2.18-10.94-2.18s-7.68.75-10.98,2.22c-3.29,1.47-6.15,3.49-8.5,5.98-2.34,2.49-4.19,5.41-5.49,8.68-1.3,3.26-1.95,6.76-1.95,10.4s.64,7.13,1.91,10.39c1.27,3.27,3.11,6.18,5.46,8.65,2.35,2.47,5.2,4.46,8.47,5.91,3.27,1.45,6.96,2.18,10.94,2.18s7.68-.75,10.98-2.22c3.29-1.47,6.15-3.48,8.5-5.98,2.34-2.49,4.19-5.41,5.49-8.68,1.3-3.26,1.95-6.76,1.95-10.4s-.64-7.13-1.91-10.39c-1.27-3.27-3.11-6.18-5.46-8.65ZM1646.76,1190.32c-.94,2.41-2.25,4.53-3.9,6.31-1.64,1.77-3.64,3.19-5.94,4.22-2.3,1.02-4.86,1.54-7.6,1.54s-5.3-.53-7.59-1.58c-2.31-1.05-4.34-2.49-6.03-4.27-1.69-1.78-3.02-3.91-3.96-6.34-.94-2.43-1.42-5.06-1.42-7.83s.48-5.38,1.42-7.79c.94-2.41,2.25-4.53,3.9-6.31,1.64-1.77,3.64-3.19,5.94-4.22,2.3-1.02,4.85-1.54,7.6-1.54s5.29.53,7.59,1.58c2.31,1.05,4.34,2.49,6.03,4.27,1.69,1.78,3.02,3.91,3.96,6.34.94,2.43,1.42,5.07,1.42,7.82s-.48,5.38-1.42,7.79Z"/>
  <path class="cls-1" d="M1706.74,1186.26c1.78-.87,3.35-1.97,4.65-3.27,1.32-1.32,2.35-2.89,3.08-4.68.72-1.78,1.09-3.82,1.09-6.06,0-2.41-.47-4.63-1.4-6.62-.93-1.98-2.26-3.71-3.96-5.12-1.68-1.4-3.73-2.5-6.09-3.26-2.34-.75-4.98-1.14-7.87-1.14h-22.79v52.68h7.71v-19.7h12.99l14.7,19.7h9.51l-15.82-21.04c1.48-.36,2.89-.86,4.2-1.5ZM1695.77,1182.05h-14.62v-18.65h14.69c3.87,0,6.89.82,8.97,2.44,2.04,1.59,3.03,3.77,3.03,6.67,0,1.48-.29,2.83-.87,3.99-.58,1.17-1.41,2.17-2.44,2.96-1.06.82-2.35,1.46-3.82,1.91-1.5.45-3.16.68-4.94.68Z"/>
  <path class="cls-1" d="M1765.35,1184.12c-2.79-2.32-7.13-4.14-12.93-5.43-2.74-.57-5.01-1.18-6.74-1.81-1.68-.61-3-1.29-3.93-2.02-.87-.68-1.47-1.44-1.79-2.24h0c-.34-.84-.51-1.82-.51-2.9,0-1.01.21-1.94.66-2.82.44-.88,1.07-1.64,1.89-2.27.85-.65,1.89-1.19,3.11-1.58,1.22-.4,2.62-.6,4.14-.6,2.48,0,4.89.42,7.16,1.24,2.27.83,4.57,2.18,6.85,4.04l.8.65,4.54-6.02-.76-.6c-2.68-2.11-5.48-3.72-8.35-4.77-2.88-1.06-6.27-1.6-10.08-1.6-2.51,0-4.87.37-6.99,1.11-2.13.74-4.02,1.77-5.59,3.07-1.6,1.32-2.86,2.91-3.74,4.72-.88,1.82-1.33,3.85-1.33,6.02s.37,4.25,1.1,5.91c.74,1.68,1.88,3.17,3.4,4.43,1.48,1.23,3.37,2.28,5.62,3.14,2.19.84,4.79,1.58,7.73,2.22,2.61.57,4.77,1.17,6.44,1.78,1.61.59,2.87,1.24,3.75,1.95.83.66,1.41,1.4,1.73,2.18.34.82.51,1.78.51,2.85,0,2.31-.88,4.12-2.69,5.53-1.87,1.45-4.43,2.18-7.61,2.18-3.37,0-6.38-.57-8.94-1.69-2.59-1.13-5.21-2.89-7.77-5.22l-.76-.69-4.83,5.72.71.64c3.12,2.81,6.45,4.92,9.9,6.26,3.46,1.35,7.32,2.03,11.48,2.03,2.6,0,5.04-.36,7.25-1.06,2.24-.71,4.18-1.75,5.78-3.09,1.61-1.34,2.89-2.99,3.81-4.9.92-1.92,1.39-4.06,1.39-6.38,0-4.21-1.47-7.56-4.38-9.98Z"/>
  <path class="cls-1" d="M1187.57,714.34c-13.11,30.99-19.76,63.9-19.76,97.82s6.65,66.84,19.76,97.83c.18.43.36.87.55,1.3,3.62-2.76,7.31-5.47,11.02-8.1-11.65-28.06-18.09-58.8-18.09-91.03,0-131.27,106.81-238.07,238.09-238.07s238.08,106.8,238.08,238.07c0,31.48-6.14,61.54-17.29,89.07,2.97,4.33,5.96,8.62,9,12.86.61-1.36,1.19-2.72,1.78-4.1,13.1-30.98,19.75-63.9,19.75-97.83s-6.65-66.83-19.75-97.82c-12.66-29.93-30.78-56.81-53.86-79.89-23.08-23.08-49.96-41.2-79.88-53.86-30.99-13.1-63.9-19.75-97.83-19.75s-66.84,6.65-97.83,19.75c-29.93,12.66-56.81,30.78-79.89,53.86-23.07,23.08-41.19,49.96-53.85,79.89Z"/>
  <path class="cls-1" d="M1631.78,889.87c1.29,1.94,2.58,3.87,3.89,5.8.06-.15.12-.31.18-.46,10.19-26.49,15.34-54.42,15.34-83.14,0-31.32-6.13-61.72-18.23-90.32-11.68-27.64-28.41-52.46-49.73-73.77-21.31-21.31-46.13-38.04-73.77-49.73-28.6-12.1-59-18.23-90.32-18.23s-61.72,6.13-90.34,18.23c-27.63,11.69-52.45,28.42-73.76,49.73-21.31,21.31-38.04,46.13-49.73,73.77-12.1,28.6-18.23,59-18.23,90.32s5.74,59.78,17.09,87.59c.05.13.11.25.16.38,1.62-1.07,3.38-1.85,5.2-2.33-.19-.45-.37-.9-.55-1.36-10.48-26.06-16.27-54.51-16.27-84.28,0-124.85,101.58-226.43,226.44-226.43s226.43,101.58,226.43,226.43c0,27.15-4.81,53.19-13.61,77.33-.06.16-.11.31-.17.47Z"/>
  <path class="cls-1" d="M1653.5,953.33h7.77c-10.39-10.33-20.89-20.4-20.89-20.45,0-.18-.11-.34-.22-.49-11.67-15.64-22.4-31.95-33.12-48.25-2.15,1.44-4.32,2.84-6.48,4.26,2.16,2.75,4.31,5.5,6.47,8.25-9-8.03-15.97-18.03-24.04-27-.14-.15-.3-.32-.5-.33-.16-.01-.31.07-.45.15-.95.54-1.9,1.08-2.85,1.62-.57.32-1.89,1.43-2.53,1.41-1.19-.05-3.33-2.54-4.27-3.32-1.82-1.49-3.63-3.01-5.42-4.53-3.61-3.06-7.16-6.2-10.64-9.4-3.5-3.21-6.92-6.51-10.3-9.85-.72-.71-1.48-1.41-2.44-1.78-1.04-.39-2.13-.17-3.21-.21-.52-.02-.99-.14-1.43-.42-.44-.27-.8-.64-1.18-1-.92-.87-1.84-1.74-2.76-2.61-4.14-3.92-8.03-8.09-12.01-12.18-.15-.15-.31-.31-.53-.34-.24-.03-.46.14-.64.29l-6.34,5.2c-3.51-2.67-7.01-5.34-10.52-8.01-.27-.21-.59-.43-.93-.38-.27.04-.47.24-.66.44-10.41,10.57-20.59,21.38-30.52,32.41-.81.9-1.66,1.84-2.79,2.3-1.43-1.62-3.02-3.08-4.76-4.36-1.99,1.13-3.78,2.61-5.25,4.36-.58.69-8.41-6.1-8.9-6.53.03-.25-.2-.52-.46-.39-.2-.15-.46.06-.39.25-4.13,2.88-8.33,5.68-12.6,8.35-3.92-3.82-7.83-7.64-11.75-11.46-2.01-1.96-4.02-3.92-6.02-5.88-.99-.97-1.97-1.94-2.97-2.9-.44-.42-.92-.71-1.55-.62-.62.1-1.15.5-1.67.83-1.31.84-2.63,1.67-3.94,2.51-.65.41-1.29.83-1.93,1.25-.34.22-.68.45-1.01.69-.21.15-.38.29-.52.46-.12.15-12.21-10.39-13.29-11.37-4.07-3.69-7.64-7.03-11.07-11.33-1.17,1.14-2.35,2.28-3.52,3.43-1.24-.64-2.47-1.28-3.71-1.92l-11.03,12.81c-1.06,1.23-2.19,2.51-3.7,3.1-1.52.58-3.54.2-4.26-1.25-2.65,2.89-5.45,5.64-8.4,8.22-.87.76-7.52,5.04-7.52,6.09-2.22-1.54-4.14-3.5-5.65-5.75-4.23,3.75-8.46,7.49-12.69,11.24-3.96-2.68-7.91-5.36-11.87-8.04-.27-.19-.57-.38-.9-.36-.34.02-.62.25-.87.47-3.12,2.74-6,5.76-8.59,9.01-1.43-.94-2.86-1.88-4.29-2.82-.34-.22-.73-.46-1.13-.39-.34.05-.61.31-.85.56-6.77,6.81-13.35,13.82-19.71,21-1.82-1.44-3.63-2.89-5.45-4.33-6.33,6.81-12.75,13.33-19.61,19.66-5.86,5.4-11.83,10.7-17.87,15.9-3.38,2.91-6.94,5.55-10.36,8.44-2.05-1.06-4.05-2.2-6-3.43-7.61,5.25-15.04,10.77-22.26,16.54-.34.28-.7.56-.9.95-.24.45-.25.98-.25,1.49-.06,6.21-.11,12.42-.17,18.63,2.52,1.01,6.75.75,9.38.36.09-.01.14-.06.17-.13,2.35.02,4.7.04,7.05.06,10.54.11,21.07.33,31.62.34,15.52.02,31.04.04,46.56.06,18.96.02,37.92.05,56.89.07,20.91.03,41.83.05,62.74.07,21.22.02,42.44.05,63.66.07,19.87.02,39.75.05,59.62.07,17.09.02,34.19.04,51.28.06,12.62.01,25.24.03,37.85.04,4.01,0,8.02,0,12.03.01.51,0,1.01,0,1.52-.02v-.07h2.41c2.03-.07,4.06-.13,6.06,0h14.26v.1ZM1473.56,860.78c3.94-4.88,7.91-9.71,12.16-14.33,3.02-3.29,6.13-6.51,9.22-9.74,2.01-2.1,4.02-4.21,6.07-6.28.58-.59,5.42-5.37,4.63-1.43-.06.3-.22.58-.37.85-1.03,1.77-2.05,3.55-3.08,5.32-1.75,2.22-3.46,4.47-5.1,6.79-2.94,4.18-5.8,8.41-8.62,12.67-1.62,2.44-3.23,4.89-4.86,7.31-.31.46.43.88.73.43,2.9-4.22,5.94-8.37,9.07-12.43,3.12-4.05,6.26-8.13,9.22-12.3.41-.57.81-1.14,1.21-1.72.36-.4.72-.81,1.09-1.21,1.05-1.13,2.58-3.51,4.05-3.31.34.04,3.7,3.39,3.81,3.21-5.78,8.74-12.26,17.01-19.13,24.92,9.56-9.41,19.11-18.82,28.67-28.22,2.07,3.9,3.94,7.75,5.71,11.77,1.79,4.07,3.56,8.16,5.19,12.3.21.52.42,1.06.84,1.44.33.31.76.48,1.19.65,4.33,1.72,8.95,3.17,13.11,5.24-2.62,1.46-8.7-.09-11.67-.27,4.14,5.02,8.7,9.69,13.63,13.94-6.96,5.6-14.39,10.62-22.19,14.99-9.74-6.58-18.47-15.32-27.09-23.3-.42-.38-.89-.79-1.46-.79-.32,0-.62.15-.91.28-3.39,1.59-6.84,3.04-10.36,4.32-5.65,2.07-11.21-6.01-14.57-9.42-1.71,1.9-3.62,3.62-5.68,5.13,1.84-2.27,3.66-4.55,5.5-6.82ZM1355.22,843.4c.79.54,1.57,1.09,2.36,1.63-1.24,3.87-2.94,7.6-5.04,11.08,7.79-9.28,15.57-18.57,23.36-27.85.82.63,1.73,1.13,2.7,1.49-.17.31-.34.62-.51.93-1.17,1.54-2.29,3.11-3.3,4.78-1.62,2.68-3.53,5.31-4.77,8.19-.04.08.07.19.14.11,1-1.11,1.85-2.39,2.73-3.6.93-1.28,1.85-2.58,2.81-3.85.67-.89,1.3-1.79,1.93-2.7,1.85-1.94,3.7-3.87,5.55-5.81,4.57,11.13,7.92,22.64,11.5,34.12-.46-6.32-.93-12.63-1.39-18.95,3.94,8.99,8.76,17.41,13.58,25.99,0,.02.02.02.03.04-.71.55-1.42,1.1-2.12,1.66-.68.53-1.35,1.06-2.03,1.59-.28.22-.6.58-.95.7-.33.11-.82-.14-1.14-.23-1.84-.58-3.68-1.19-5.56-1.65-.26-.07-.47.29-.3.46-1.6,1.14-3.15,2.37-4.69,3.59-1.59,1.25-3.17,2.52-4.73,3.79-3.13,2.55-6.2,5.19-9.23,7.86-.86.76-1.72,1.52-2.57,2.29-.82.74-1.67,1.45-2.43,2.26-5.76-7.01-11.6-13.95-17.54-20.8-.84-.97-12.04-13.64-11.87-13.79.11-.09.22-.17.32-.26,4.8-3.91,9.22-8.29,13.16-13.06ZM1400.16,949.72c-3.81-.56-7.89-.04-11.46-1.76-3.4-1.64-5.67-5.09-9.08-6.7,1.38.65,3.35,6.7,3.88,8.2-7.21.13-14.42-.06-21.61-.58-.27-.02-.54-.04-.82-.06-2.71-.2-5.5-.48-7.93-1.72-3.99-2.05-6.4-6.44-10.44-8.4,1.43,2.78,2.86,5.56,4.29,8.33-9.05.53-18.1,1.07-27.15,1.6-3.35.2-6.82.38-9.94-.86-3.85-1.53-6.77-5.07-10.81-6.02.76,1.97,1.52,3.93,2.28,5.9-6.96,1.07-14.55.51-21.67.87-.56.03-1.24,0-1.51-.5-.18-.33-.08-.74.02-1.1.47-1.73.94-3.46,1.41-5.2-3.91,3.76-9.61,5.56-14.97,4.72,1.27-2.85,2.54-5.71,3.81-8.56-4,3.88-8.23,7.89-13.6,9.38-2.62.73-5.37.81-8.09.87-9.35.21-18.71.3-28.06.25,2.11-2.72,4.45-5.29,6.78-7.81,1.78-1.92,4.48-5.66,6.88-6.75-9.42,4.27-16.49,13.89-27.1,15.07-3.47.39-6.97.13-10.44-.13-.28-.02-.58-.05-.78-.24-.24-.23-.25-.59-.26-.92,0-3.36-.02-6.73-.02-10.09,0-4.25-.16-4.85,3.38-7.27,5.47-3.73,10.94-7.46,16.41-11.19.32-.22.67-.45,1.06-.46.34,0,.65.14.95.29,1.07.53,2.24,1.01,3.17,1.71-3.56,5.71-8.81,10.86-13.09,16.07,15.41-13.93,30.82-27.87,46.24-41.8-4.46,6.37-8.45,13.07-11.91,20.03,8.76-10.87,17.52-21.74,26.28-32.61-1.02,1.27,4.37,8.64,5.05,9.69,3.1,4.79,6.04,9.55,8.42,14.75.82,1.8,1.6,3.64,2.77,5.23,1.32,1.8,3.08,3.21,4.82,4.6,2.27,1.81,4.54,3.62,6.81,5.44-1.63-3.09-3.11-6.35-4.11-9.71,1.4,1.77,3.09,2.99,4.3,4.91,1.72,2.75,3.14,5.75,4.69,8.59.44.81.91,1.65,1.66,2.21,1.29.96,3.08.83,4.61,1.36,1.37.48,2.49,1.47,3.57,2.44,4.82,4.34,9.64,8.67,14.45,13.01-8.06-10.19-16.36-20.28-24.39-30.44-4.04-5.12-7.8-10.5-11.61-15.79-1.97-2.73-3.92-5.47-5.87-8.22-1.1-1.55-5.49-5.96-5.49-7.77-.35-.5-.72-1.03-.78-1.65-.11-1.04.66-1.94,1.39-2.7,5.94-6.21,12.07-12.22,18.39-18.04,1.17.85,2.33,1.69,3.5,2.54-2.94,4.18-5.73,8.46-8.39,12.83,2.99-3.68,6.01-7.32,9.07-10.93,1.53-1.81,3.07-3.6,4.62-5.39.94-1.09,2.96-4.48,4.31-4.89,1.74-.52,5.3,2.22,6.74,3.06,1.84,1.07,3.76,2.12,5.48,3.4-2.83,2.76-5.76,5.41-8.78,7.95.52.62,1.05,1.23,1.57,1.85-6.62,5.62-12.67,11.9-18.03,18.73,7.87-5.79,15.23-12.28,21.95-19.37-.67-.3-.85-1.22-.59-1.9.26-.68.85-1.18,1.41-1.66,5.31-4.49,10.5-9.13,15.55-13.91,1.27,3.4,3.18,6.52,4.64,9.8,1.66,3.72,3.66,7.33,5.49,10.97,1.78,3.55,3.58,7.1,5.37,10.65.9,1.78,1.79,3.56,2.69,5.34.73,1.44,1.56,2.89,2.93,3.81,1.24.84,2.76,1.12,4.19,1.45,1.1.26,2.31.57,3.17,1.34-1.99.84-4.04,1.52-6.14,2.03-.34.08-.55.54-.34.84,8.46,12.53,16.81,25.11,25.03,37.8-.64-3.79-1.81-7.5-3.45-10.97,6.82,3.31,13.64,6.62,20.46,9.93-4.94-1-9.88-1.99-14.82-2.99,5.74,4.84,11.93,8.51,18.54,12.01,2.5,1.33,5.04,2.98,7.69,3.98.88.33,2.27.42,3.04.86.32.18,1.71,1.81,1.73,1.81-4.5-.38-8.95-.76-13.4-1.42ZM1510.16,941.5c1.35,1.42,2.64,2.9,3.92,4.41.26.31.53.77.26,1.07-.15.17-.41.19-.63.2-2.39.11-4.78.21-7.17.32-1.72.08-3.47.15-5.15-.24-1.27-.3-2.46-.85-3.63-1.43-3.07-1.51-6.05-3.21-8.91-5.07l4.01,6.13c.11.17.23.39.15.57-.08.18-.29.24-.48.28-4.76,1-10.28.24-15.14.37-2.81.07-5.62.17-8.43.29-1.06.05-7.31-.35-7.82.4,2.72-3.97,5.45-7.93,8.17-11.9-4.45,3.63-8.9,7.25-13.35,10.88-.95.78-1.95,1.57-3.13,1.9-1.21.33-2.49.12-3.73-.07-7.88-1.24-15.82-2.07-23.79-2.51,0,0-.01,0-.02,0-1.32-.07-2.73-.17-3.8-.95-.95-.7-1.45-1.84-1.98-2.89-3.39-6.75-9.39-12.14-16.47-14.79,4.07,3.8,4.04,9.09,7.21,13.25-7.15-9.37-14.18-18.84-21.38-28.16-1.99-2.58-3.99-5.17-5.97-7.77-1.48-1.94-2.86-4-4.42-5.88-.99-1.2-4.47-4.27-4.47-5.79-1.94,1.55-4.17,2.74-6.55,3.46,8.34-8.47,17.45-16.24,26.8-23.57.16-.12.32-.25.52-.29.27-.06.55.05.8.16,1.35.58,2.69,1.16,4.04,1.73-5.37,5.18-10.24,10.85-15.23,16.4,10.59-9.01,21.18-18.02,31.77-27.03,1.52,2.59,3.9,4.67,6.68,5.83-3.81,3.22-7.64,6.46-11.18,9.96-4.57,3.8-8.93,7.83-13.3,11.85-2.56,2.35-5.16,4.68-7.66,7.09-.43.41.19.97.63.63,4.91-3.82,9.68-7.84,14.49-11.78,3.94-3.22,7.77-6.6,11.49-10.08,4.15-3.26,8.37-6.44,12.65-9.52,4.44-3.19,8.94-6.27,13.52-9.26,1.42-.92,4.96-4.19,6.63-4.16,1.72.04,2.06,2.06,3.04,3.59,1.08,1.7,2.17,3.39,3.25,5.09l6.54,10.23c0,1.31,2.55,3.92,3.16,5.18.91,1.86,1.6,3.87,2.53,5.75,2.07,4.19,4.4,8.25,6.98,12.15-4.32,7.32-8.81,14.55-13.44,21.68,6.81-6.47,12.65-13.87,18.47-21.25,10.14,4.78,19.53,11.15,27.74,18.8-6.35-1.67-12.46-4.24-18.1-7.61,4.11,5.85,8.21,11.7,12.32,17.55.79,1.12,1.58,2.25,2.62,3.14.99.86,2.17,1.47,3.34,2.07,4.55,2.34,9.09,4.69,13.64,7.03-5.32-.6-10.64-1.2-15.96-1.8.78.09,3.26,3.64,3.91,4.33ZM1623.36,949.06c-2.12.12-4.25.25-6.37.37-3.83.22-7.65.44-11.48.67-4.27.25-8.62.49-12.78-.51-3.44-.83-6.62-2.47-9.76-4.1-4.17-2.16-8.35-4.33-12.52-6.49,1.79,3.52,4.28,6.69,7.26,9.27l-26.01-.61c-.74-.02-1.53-.05-2.14-.47-.63-.43-.95-1.18-1.23-1.89-1.48-3.71-2.97-7.41-4.45-11.12-.37-.92-.79-1.9-1.64-2.42-1-.6-2.27-.36-3.44-.42-4.98-.25-7.75-5.77-9.32-10.5-1.44-4.33-3.3-7.87-6.73-10.93-1.15-1.03-10.17-5.6-10.14-5.04.11,3.07.03,6.16-.24,9.22-1.82-5.95-3.02-12.09-3.59-18.28-.09-1.02-.18-2.06-.64-2.97-.39-.76-1.02-1.36-1.64-1.95-2.9-2.76-5.8-5.52-8.7-8.28-1.33-1.27-4.88-6.1-6.85-5.67-4.49.99-8.99,1.99-13.48,2.98,6.88-2.69,13.33-6.28,20.12-9.11,2.87-1.19,4.43,1.74,6.28,3.62,2.29,2.32,4.58,4.63,6.87,6.95,8.44,8.55,16.91,17.12,26.33,24.58.44.35.92.71,1.48.72.46.01.9-.21,1.3-.44,1.92-1.05,3.85-2.09,5.77-3.14.61-.33,1.28-.67,1.95-.53.51.1.92.46,1.3.81,2.07,1.84,4.19,3.96,6.48,5.52,5.98,4.07,11.16,9.51,16.55,14.34-4.81-1.57-9.43-3.74-13.71-6.43-1.05,1.58-2.11,3.16-3.16,4.74,15.64,8.87,31.29,17.74,46.93,26.6-6.44-8.75-12.9-17.52-18.29-26.95-.16-.27-.36-.58-.67-.6-.21-.01-.39.11-.56.23l-1.82,1.26c-8.72-8.76-16.68-18.28-23.74-28.42-.17-.24-.37-.51-.67-.54-.25-.03-.49.12-.7.27-4.93,3.48-10.03,7.47-15.61,9.92-.34.2-.7.41-1.1.42-.67.02-1.21-.52-1.66-1.02-2.4-2.67-5.33-4.72-7.58-7.53,12.13-7.29,24.44-14.26,36.93-20.91.33-.18.72-.36,1.08-.24.24.08.41.28.58.48,4.03,4.83,8.05,9.67,12.08,14.5-1.78-3.87-3.92-7.58-6.37-11.07,2.71-1.86,4.84-4.13,7.7-5.86,5.41,10.55,10.81,21.09,16.22,31.64.41.8.84,1.63,1.54,2.21.63.51,1.42.78,2.18,1.05,3.04,1.07,5.98,2.43,8.76,4.05-1.55.01-3.1-.07-4.64-.25-.93-.11-3.3-.94-4.01-.37,1.92,4.55,5.04,8.29,7.51,12.47.98,1.66,3.27,12.22,4.26,12.61,4.56,1.79,8.84,4.31,12.6,7.46-3.1-.26-6.49-.77-9.48-.68,2.28,2.26,4.57,4.5,6.86,6.76Z"/>
  <path class="cls-1" d="M1154.85,742.83l-11.98-3.94,2.89-8.81,14.91-5,1.4-4.27-15.69,5.33c.19-1.27.21-2.5.04-3.69-.16-1.19-.49-2.28-1-3.28-.5-.99-1.19-1.86-2.07-2.61-.88-.74-1.96-1.33-3.25-1.75-1.38-.45-2.72-.6-4.03-.45-1.3.16-2.52.59-3.65,1.29-1.13.7-2.13,1.67-3.02,2.88-.89,1.22-1.61,2.68-2.17,4.38l-4.36,13.25,30.82,10.13,1.14-3.48ZM1127.25,733.76l3.13-9.53c.82-2.5,2-4.27,3.53-5.3,1.53-1.03,3.27-1.23,5.21-.59,1,.33,1.84.82,2.5,1.48.66.66,1.15,1.43,1.47,2.32.31.89.46,1.86.43,2.93-.02,1.07-.23,2.18-.6,3.32l-3.12,9.49-12.55-4.12Z"/>
  <rect class="cls-1" x="1153.81" y="679.51" width="3.66" height="32.44" transform="translate(33.02 1443.57) rotate(-64.72)"/>
  <path class="cls-1" d="M1157.15,668.07c.64,1.02,1.51,1.87,2.61,2.56,1.15.72,2.27,1.16,3.34,1.32,1.07.16,2.16.05,3.26-.32,1.11-.37,2.25-1,3.42-1.89,1.18-.89,2.43-2.02,3.76-3.38,1.22-1.25,2.29-2.23,3.21-2.95.92-.72,1.76-1.21,2.51-1.47.75-.26,1.44-.34,2.09-.23.64.11,1.29.37,1.95.78,1.42.89,2.21,2.16,2.38,3.81.17,1.65-.33,3.41-1.49,5.27-1.2,1.91-2.57,3.4-4.13,4.47-1.56,1.07-3.44,1.91-5.66,2.53l1.08,3.35c2.52-.72,4.7-1.77,6.55-3.14,1.85-1.38,3.46-3.16,4.84-5.36.85-1.36,1.45-2.73,1.81-4.12.35-1.38.45-2.7.27-3.94-.17-1.24-.6-2.4-1.27-3.48-.68-1.07-1.61-1.98-2.79-2.72-2.12-1.33-4.24-1.64-6.36-.95-2.12.7-4.47,2.37-7.07,5.01-1.26,1.32-2.38,2.36-3.34,3.11-.96.75-1.83,1.26-2.61,1.54-.78.28-1.49.36-2.15.24-.66-.12-1.31-.38-1.97-.79-.63-.39-1.13-.9-1.51-1.52-.38-.62-.61-1.31-.68-2.07-.07-.76,0-1.57.21-2.44.21-.87.6-1.75,1.16-2.64.89-1.41,1.97-2.62,3.25-3.62,1.28-1,2.85-1.82,4.7-2.44l-1.27-3.31c-2,.72-3.75,1.65-5.25,2.81-1.5,1.16-2.88,2.75-4.14,4.76-.82,1.31-1.38,2.63-1.69,3.97-.31,1.34-.38,2.62-.22,3.85.16,1.23.56,2.36,1.2,3.38Z"/>
  <polygon class="cls-1" points="1218.65 631.07 1216.11 628.9 1203.1 644.11 1194.47 636.73 1205.98 623.28 1203.44 621.11 1191.93 634.56 1183.52 627.36 1196.38 612.33 1193.85 610.16 1178.6 627.98 1203.25 649.07 1218.65 631.07"/>
  <path class="cls-1" d="M1251.59,601.42l-1.94-9.19,14.27-10.4,8.12,4.69,3.18-2.32-31.19-17.7-2.77,2.02,7.29,35.11,3.03-2.21ZM1260.85,580.05l-11.95,8.71-3.75-17.74,15.7,9.03Z"/>
  <path class="cls-1" d="M1303.4,569.67c1.58-.77,2.94-1.64,4.07-2.64,1.13-.99,2-2.05,2.6-3.19.6-1.13.91-2.32.92-3.56.02-1.24-.28-2.49-.89-3.74-.48-1-1.08-1.81-1.79-2.43-.71-.62-1.48-1.07-2.3-1.36-.82-.29-1.72-.45-2.67-.48-.96-.03-1.93.03-2.91.2.46-.53.87-1.12,1.23-1.75.36-.64.63-1.34.8-2.11.17-.77.22-1.58.13-2.43-.09-.85-.36-1.76-.84-2.74-.54-1.11-1.25-2.01-2.13-2.7-.88-.69-1.89-1.15-3.03-1.37-1.14-.22-2.37-.23-3.7,0-1.33.22-2.72.67-4.17,1.37l-12.41,6,14.13,29.2,12.95-6.27ZM1281.03,548.06l8.86-4.29c2.08-1.01,3.89-1.34,5.41-1.02,1.53.33,2.65,1.23,3.37,2.71.84,1.73.85,3.35.03,4.84-.82,1.5-2.21,2.72-4.18,3.67l-8.61,4.17-4.88-10.1ZM1296.52,556.63c2.55-1.23,4.69-1.73,6.42-1.48,1.73.25,2.99,1.18,3.77,2.8.81,1.68.8,3.28-.03,4.82-.83,1.54-2.36,2.84-4.57,3.92l-9.78,4.73-5-10.35,9.2-4.45Z"/>
  <path class="cls-1" d="M1327.9,548.69c1.32,1.73,2.88,3.12,4.7,4.19,1.82,1.07,3.82,1.75,6.02,2.05,2.19.3,4.48.11,6.85-.57,2.37-.68,4.42-1.75,6.12-3.19,1.71-1.44,3.04-3.1,4.01-4.99.97-1.89,1.56-3.91,1.77-6.08.21-2.17,0-4.33-.62-6.5-.62-2.17-1.59-4.11-2.91-5.84-1.32-1.73-2.89-3.12-4.7-4.19-1.82-1.07-3.82-1.75-6.02-2.05-2.19-.3-4.48-.11-6.85.58-2.38.68-4.42,1.75-6.12,3.19-1.71,1.44-3.05,3.1-4.01,4.99-.97,1.89-1.56,3.91-1.77,6.08-.21,2.17,0,4.33.62,6.5.63,2.17,1.6,4.11,2.91,5.84ZM1328.08,536.44c.16-1.73.61-3.33,1.34-4.8.74-1.47,1.76-2.75,3.06-3.85,1.31-1.1,2.85-1.91,4.63-2.42,1.78-.51,3.52-.64,5.22-.39,1.7.25,3.26.8,4.69,1.64,1.43.84,2.68,1.96,3.74,3.36,1.06,1.4,1.85,2.99,2.36,4.77.51,1.78.69,3.54.53,5.27-.16,1.73-.61,3.33-1.34,4.8-.74,1.47-1.76,2.75-3.06,3.85-1.31,1.1-2.85,1.91-4.63,2.42-1.78.51-3.52.65-5.22.39-1.7-.25-3.26-.8-4.69-1.64-1.43-.84-2.68-1.96-3.74-3.36-1.06-1.4-1.85-2.99-2.36-4.77-.51-1.78-.69-3.54-.53-5.27Z"/>
  <polygon class="cls-1" points="1391.98 544.85 1402.08 510.79 1398.17 511.24 1389.87 540.33 1375.2 513.89 1371.14 514.36 1388.75 545.22 1391.98 544.85"/>
  <polygon class="cls-1" points="1446.86 540.39 1426.86 539.56 1427.33 528.22 1445.01 528.95 1445.15 525.62 1427.46 524.88 1427.92 513.82 1447.69 514.63 1447.83 511.3 1424.4 510.33 1423.06 542.74 1446.72 543.72 1446.86 540.39"/>
  <polygon class="cls-1" points="1497.89 553.3 1501.41 554.3 1509.41 526.37 1519.88 529.37 1520.81 526.12 1496.35 519.11 1495.42 522.36 1505.89 525.36 1497.89 553.3"/>
  <polygon class="cls-1" points="1538 551.78 1554.99 559.66 1548.85 572.9 1552.17 574.44 1565.82 545.01 1562.5 543.47 1556.43 556.55 1539.45 548.67 1545.51 535.59 1542.19 534.05 1528.54 563.48 1531.86 565.02 1538 551.78"/>
  <polygon class="cls-1" points="1591.05 594.87 1574.44 583.69 1580.78 574.28 1595.46 584.16 1597.33 581.39 1582.64 571.51 1588.83 562.32 1605.24 573.37 1607.11 570.6 1587.65 557.51 1569.54 584.42 1589.18 597.64 1591.05 594.87"/>
  <path class="cls-1" d="M1633.75,620.52l6.2,6.89-3.09,15.42,3,3.34,3.19-16.26c1.01.8,2.07,1.42,3.18,1.88,1.11.45,2.23.71,3.34.77,1.11.06,2.21-.11,3.29-.5,1.08-.39,2.13-1.04,3.14-1.95,1.08-.97,1.88-2.06,2.39-3.27.51-1.21.74-2.48.7-3.8-.05-1.33-.38-2.68-1-4.06-.62-1.38-1.52-2.74-2.72-4.07l-9.32-10.38-24.13,21.68,2.45,2.72,9.38-8.43ZM1645.99,609.52l6.71,7.46c1.76,1.96,2.7,3.86,2.84,5.7.13,1.84-.56,3.44-2.09,4.81-.78.7-1.63,1.18-2.53,1.43-.9.25-1.82.29-2.74.12-.92-.17-1.84-.53-2.76-1.08-.91-.55-1.77-1.28-2.58-2.18l-6.68-7.43,9.82-8.83Z"/>
  <polygon class="cls-1" points="1663.3 680.08 1666.09 678.26 1655.13 661.5 1664.63 655.29 1674.32 670.1 1677.11 668.27 1667.42 653.46 1676.69 647.39 1687.52 663.95 1690.31 662.13 1677.47 642.5 1650.33 660.27 1663.3 680.08"/>
  <path class="cls-1" d="M1688.69,694.23c.1,1.47.35,3.14.77,4.99.38,1.7.61,3.14.71,4.3.1,1.17.05,2.13-.14,2.9-.19.77-.51,1.39-.95,1.87-.44.48-1.02.88-1.72,1.2-1.52.7-3.02.67-4.49-.1-1.48-.77-2.68-2.14-3.59-4.13-.94-2.05-1.44-4.02-1.47-5.9-.04-1.89.29-3.93.98-6.12l-3.39-.94c-.78,2.5-1.1,4.9-.96,7.2.14,2.3.75,4.63,1.84,6.99.67,1.46,1.49,2.71,2.45,3.77.96,1.05,2.01,1.85,3.15,2.39,1.13.54,2.34.82,3.61.84,1.27.02,2.54-.26,3.8-.85,2.28-1.05,3.7-2.65,4.27-4.8.57-2.15.47-5.04-.31-8.66-.41-1.78-.67-3.28-.77-4.49-.1-1.21-.05-2.22.14-3.02.19-.8.52-1.45.98-1.93.46-.48,1.04-.89,1.74-1.21.67-.31,1.37-.46,2.1-.43.72.02,1.42.21,2.1.56.67.35,1.31.86,1.92,1.51.61.66,1.13,1.46,1.57,2.41.7,1.52,1.12,3.08,1.25,4.7.14,1.62-.04,3.38-.53,5.27l3.46.75c.5-2.07.67-4.04.52-5.93-.15-1.89-.72-3.91-1.72-6.07-.65-1.4-1.45-2.6-2.4-3.59-.95-.99-1.98-1.76-3.1-2.29-1.12-.54-2.28-.82-3.48-.84-1.2-.02-2.4.24-3.57.78-1.24.57-2.21,1.26-2.93,2.07-.72.81-1.23,1.78-1.52,2.9-.3,1.13-.4,2.43-.3,3.9Z"/>
  <polygon class="cls-1" points="1689.87 741.16 1690.91 744.67 1718.77 736.43 1721.86 746.87 1725.11 745.91 1717.89 721.51 1714.65 722.47 1717.73 732.92 1689.87 741.16"/>
  <path class="cls-1" d="M1275.92,822.13c-22.92,9.46-45.32,20.18-67.06,32.12,22.93-9.45,45.32-20.19,67.06-32.12Z"/>
  <path class="cls-1" d="M1219.28,761.23c24.64,2.82,49.43,4.27,74.23,4.35-24.64-2.81-49.43-4.28-74.23-4.35Z"/>
  <path class="cls-1" d="M1413.86,663.48c1.02-18.15.68-36.37-1.06-54.47-1.03,18.15-.67,36.37,1.06,54.47Z"/>
  <path class="cls-1" d="M1529.61,766.53c24.79.73,49.61.11,74.33-1.91-24.79-.74-49.61-.1-74.33,1.91Z"/>
  <path class="cls-1" d="M1591.56,841.04c-20.97-13.24-42.68-25.29-64.99-36.12,20.98,13.23,42.68,25.3,64.99,36.12Z"/>
  <path class="cls-1" d="M1258.15,667.77c12.83,14.39,26.71,27.85,41.46,40.26-12.84-14.38-26.7-27.85-41.46-40.26Z"/>
  <path class="cls-1" d="M1335.78,621.79c3.84,18.9,9.04,37.51,15.52,55.67-3.85-18.89-9.03-37.51-15.52-55.67Z"/>
</svg>