<?xml version="1.0" encoding="UTF-8"?>
<svg id="Layer_1" data-name="Layer 1" xmlns="http://www.w3.org/2000/svg" viewBox="0 0 2848 1720">
  <defs>
    <style>
      .cls-1, .cls-2 {
        stroke-width: 0px;
      }

      .cls-2 {
        fill: #fff;
      }
    </style>
  </defs>
  <rect class="cls-1" x="-32.73" y="-19.77" width="2913.46" height="1759.53"/>
  <g>
    <path class="cls-2" d="M983.39,824.77h-.54c-1.78-16.52-5.64-46.09-9.52-70.69h-38.11v117.83h23.82v-36.86c0-20.42-.52-44.23-1.1-58.08h.88c3.24,23.83,8.14,63.48,12.26,94.93h21.88c5.31-30.24,10.22-70.07,13.68-94.64h.77c-.35,14.22-.64,38.59-.64,56.9v37.74h25.48v-117.83h-37.73c-4.43,27.55-8.86,53.14-11.12,70.69Z"/>
    <path class="cls-2" d="M1086.99,751.92c-27.05,0-40.53,17.99-40.53,59.74s12.12,62.48,39.42,62.48c29.29,0,41.07-18.7,41.07-61.88s-12.19-60.33-39.96-60.33ZM1086.65,852.85c-9.29,0-11.91-12.1-11.91-41.19,0-27.46,2.58-38.35,11.91-38.35s12.03,10.39,12.03,38.35c0,29.93-2.22,41.19-12.03,41.19Z"/>
    <path class="cls-2" d="M1140.59,835.58c0,24.36,10.35,38.54,37.66,38.54s38.73-14.31,38.73-38.31v-81.74h-27.2v82.61c0,8.75-1.71,16.22-10.94,16.22s-11.17-8.65-11.17-16.33v-82.5h-27.08v81.5Z"/>
    <path class="cls-2" d="M1279.58,871.91h29.19v-117.83h-23.91v21.63c0,18.39.37,37.81,1.54,52.63h-.48c-1.21-5.38-5.37-18.73-23.28-74.27h-29.62v117.83h24.02v-22.93c0-19.27-.49-41.1-1.42-55.28h.54c1.32,5.09,4.82,16.96,23.43,78.21Z"/>
    <polygon class="cls-2" points="1392.35 754.08 1318.98 754.08 1318.98 776.23 1342.22 776.23 1342.22 871.91 1369.24 871.91 1369.24 776.23 1392.35 776.23 1392.35 754.08"/>
    <path class="cls-2" d="M1409.4,754.08l-23.25,117.83h27.08l4.01-25.22h21.5l4.13,25.22h28.12l-23.54-117.83h-38.05ZM1420.7,823.92c2.79-17.2,5.66-35.9,6.82-47.2h.89c1.49,10.83,4.07,30.01,6.75,47.2h-14.45Z"/>
    <rect class="cls-2" x="1479.91" y="754.08" width="27.08" height="117.83"/>
    <path class="cls-2" d="M1576.95,775.72c0,18.39.37,37.81,1.54,52.63h-.48c-1.21-5.38-5.37-18.73-23.28-74.27h-29.62v117.83h24.02v-22.93c0-19.27-.49-41.1-1.42-55.28h.54c1.32,5.09,4.82,16.96,23.43,78.21h29.19v-117.83h-23.91v21.63Z"/>
    <path class="cls-2" d="M1684.11,871.91v-64.96h-33.41v11.43h20.58v5.79c0,24.83-3.65,38.2-19.63,38.2s-21.11-20.16-21.11-49.79,5.91-49.5,22.65-49.5,17.63,16.73,17.98,20.94h12.99c-.35-7.09-2.21-32.3-30.62-32.3-24.07,0-36.6,20.29-36.6,61.09,0,34.41,6.72,60.87,32.39,60.87,13.92,0,19.83-6.31,23.72-14.56.06,5.91.41,9.48.82,12.8h10.24Z"/>
    <path class="cls-2" d="M1736.5,751.7c-23.25,0-35.1,19.73-35.1,60.12s10.1,61.84,34.51,61.84c25.65,0,35.28-21.64,35.28-62.06s-10.15-59.91-34.68-59.91ZM1736.32,862.36c-14.68,0-21.5-17.03-21.5-50.82s6.92-48.47,21.39-48.47,21.56,14.2,21.56,48.7-6.3,50.6-21.45,50.6Z"/>
    <path class="cls-2" d="M1808.25,753.4s-28.62,118.51-28.62,118.52h13l8.62-37.61h30.8l8.73,37.61h13.82l-29.47-118.52h-16.88ZM1803.8,822.75c5.82-25.45,10.66-46.77,12.28-57.08h.41c1.58,9.44,6.02,27.97,12.9,57.08h-25.6Z"/>
    <polygon class="cls-2" points="1846.94 753.4 1846.94 765.01 1873.36 765.01 1873.36 871.91 1886.36 871.91 1886.36 765.01 1912.78 765.01 1912.78 753.4 1846.94 753.4"/>
    <path class="cls-2" d="M1096.62,945.49h15.43v11.18c-1.59,1.21-3.54,2.27-5.81,3.16-2.43.94-5.06,1.42-7.82,1.42-2.94,0-5.61-.51-7.94-1.51-2.32-1-4.33-2.41-5.96-4.19-1.64-1.78-2.92-3.92-3.82-6.38-.9-2.47-1.35-5.2-1.35-8.11,0-2.72.47-5.32,1.38-7.74.92-2.41,2.19-4.54,3.79-6.33,1.59-1.78,3.53-3.21,5.77-4.26,2.22-1.04,4.69-1.57,7.33-1.57,1.71,0,3.29.14,4.7.42,1.4.28,2.71.66,3.87,1.14,1.16.48,2.26,1.06,3.27,1.72,1.02.67,2,1.43,2.93,2.26l.76.68,5-5.88-.76-.64c-1.29-1.09-2.62-2.08-3.98-2.94-1.38-.88-2.88-1.63-4.45-2.23-1.58-.6-3.3-1.06-5.12-1.36-1.81-.3-3.82-.45-5.99-.45-3.94,0-7.57.75-10.81,2.23-3.22,1.47-6.02,3.49-8.32,5.99-2.3,2.5-4.1,5.43-5.37,8.72-1.27,3.29-1.91,6.77-1.91,10.35s.62,7.28,1.84,10.56c1.22,3.3,3.02,6.21,5.35,8.67,2.33,2.46,5.17,4.41,8.44,5.81,3.27,1.4,7.02,2.11,11.15,2.11,4.41,0,8.46-.79,12.02-2.36,3.53-1.55,6.56-3.44,8.99-5.62l.33-.3v-21.59h-22.92v7.06Z"/>
    <path class="cls-2" d="M1156.79,914.39l-24,53.04h8.05l6.01-13.4h26.3l5.94,13.4h8.34l-24-53.04h-6.64ZM1149.98,946.98l10.05-22.43,9.99,22.43h-20.04Z"/>
    <path class="cls-2" d="M1235.43,944.89c1.78-.87,3.35-1.97,4.65-3.27,1.32-1.32,2.35-2.89,3.08-4.68.72-1.78,1.09-3.82,1.09-6.06,0-2.41-.47-4.63-1.4-6.62-.93-1.98-2.26-3.71-3.96-5.12-1.68-1.4-3.73-2.5-6.09-3.26-2.34-.75-4.98-1.14-7.87-1.14h-22.79v52.68h7.71v-19.7h12.99l14.7,19.7h9.51l-15.82-21.04c1.48-.36,2.89-.86,4.2-1.5ZM1224.46,940.68h-14.62v-18.65h14.69c3.87,0,6.89.82,8.97,2.44,2.04,1.59,3.03,3.77,3.03,6.67,0,1.48-.29,2.83-.87,3.99-.58,1.17-1.41,2.17-2.44,2.96-1.06.82-2.35,1.46-3.82,1.91-1.5.45-3.16.68-4.94.68Z"/>
    <path class="cls-2" d="M1280.85,914.39l-24,53.04h8.05l6.01-13.4h26.3l5.94,13.4h8.34l-24-53.04h-6.64ZM1274.04,946.98l10.05-22.43,9.99,22.43h-20.04Z"/>
    <path class="cls-2" d="M1346.18,945.49h15.43v11.18c-1.59,1.21-3.54,2.27-5.81,3.16-2.43.94-5.06,1.42-7.82,1.42-2.94,0-5.61-.51-7.94-1.51-2.32-1-4.33-2.41-5.96-4.19-1.64-1.78-2.92-3.92-3.82-6.38-.9-2.47-1.35-5.2-1.35-8.11,0-2.72.47-5.32,1.38-7.74.92-2.41,2.19-4.54,3.79-6.33,1.59-1.78,3.53-3.21,5.77-4.26,2.22-1.04,4.69-1.57,7.33-1.57,1.71,0,3.29.14,4.7.42,1.4.28,2.71.66,3.87,1.14,1.16.48,2.26,1.06,3.27,1.72,1.02.67,2,1.43,2.92,2.26l.76.68,5-5.88-.76-.64c-1.29-1.09-2.62-2.08-3.98-2.94-1.38-.88-2.88-1.63-4.45-2.23-1.58-.6-3.3-1.06-5.12-1.36-1.81-.3-3.82-.45-5.99-.45-3.94,0-7.57.75-10.81,2.23-3.22,1.47-6.02,3.49-8.32,5.99-2.3,2.5-4.1,5.43-5.37,8.72-1.27,3.29-1.91,6.77-1.91,10.35s.62,7.28,1.84,10.56c1.22,3.3,3.02,6.21,5.35,8.67,2.33,2.46,5.17,4.41,8.44,5.81,3.27,1.4,7.02,2.11,11.15,2.11,4.41,0,8.46-.79,12.02-2.36,3.53-1.55,6.56-3.44,8.99-5.62l.33-.3v-21.59h-22.92v7.06Z"/>
    <polygon class="cls-2" points="1394.95 944.47 1422.62 944.47 1422.62 937.27 1394.95 937.27 1394.95 921.95 1425.88 921.95 1425.88 914.75 1387.24 914.75 1387.24 967.43 1426.24 967.43 1426.24 960.23 1394.95 960.23 1394.95 944.47"/>
    <path class="cls-2" d="M1510.7,922.26c-2.47-2.35-5.46-4.21-8.87-5.53-3.41-1.32-7.2-1.99-11.26-1.99h-18.59v52.68h18.59c4.07,0,7.86-.68,11.26-2.02,3.41-1.35,6.4-3.22,8.87-5.56,2.48-2.35,4.42-5.18,5.77-8.41,1.35-3.22,2.03-6.72,2.03-10.41s-.68-7.18-2.03-10.38c-1.35-3.2-3.29-6.02-5.77-8.37ZM1509.17,948.68c-.93,2.28-2.28,4.3-3.98,6.01-1.7,1.7-3.82,3.05-6.28,4.01-2.48.96-5.28,1.45-8.33,1.45h-10.88v-38.14h10.88c3.05,0,5.85.5,8.32,1.49,2.47.98,4.59,2.35,6.29,4.05,1.71,1.71,3.05,3.75,3.98,6.08.94,2.33,1.41,4.86,1.41,7.52s-.47,5.23-1.41,7.52Z"/>
    <path class="cls-2" d="M1579.93,921.97c-2.35-2.47-5.2-4.46-8.47-5.91-3.28-1.45-6.96-2.18-10.94-2.18s-7.68.75-10.98,2.22c-3.29,1.47-6.15,3.49-8.5,5.98-2.34,2.49-4.19,5.41-5.49,8.68-1.3,3.26-1.95,6.76-1.95,10.4s.64,7.13,1.91,10.39c1.27,3.27,3.11,6.18,5.46,8.65,2.35,2.47,5.2,4.46,8.47,5.91,3.27,1.45,6.96,2.18,10.94,2.18s7.68-.75,10.98-2.22c3.29-1.47,6.15-3.48,8.5-5.98,2.34-2.49,4.19-5.41,5.49-8.68,1.3-3.26,1.95-6.76,1.95-10.4s-.64-7.13-1.91-10.39c-1.27-3.27-3.11-6.18-5.46-8.65ZM1577.96,948.95c-.94,2.41-2.25,4.53-3.9,6.31-1.64,1.77-3.64,3.19-5.94,4.22-2.3,1.02-4.86,1.54-7.6,1.54s-5.3-.53-7.59-1.58c-2.31-1.05-4.34-2.49-6.03-4.27-1.69-1.78-3.02-3.91-3.96-6.34-.94-2.43-1.42-5.06-1.42-7.83s.48-5.38,1.42-7.79c.94-2.41,2.25-4.53,3.9-6.31,1.64-1.77,3.64-3.19,5.94-4.22,2.3-1.02,4.85-1.54,7.6-1.54s5.29.53,7.59,1.58c2.31,1.05,4.34,2.49,6.03,4.27,1.69,1.78,3.02,3.91,3.96,6.34.94,2.43,1.42,5.07,1.42,7.82s-.48,5.38-1.42,7.79Z"/>
    <path class="cls-2" d="M1648.73,921.97c-2.35-2.47-5.2-4.46-8.47-5.91-3.28-1.45-6.96-2.18-10.94-2.18s-7.68.75-10.98,2.22c-3.29,1.47-6.15,3.49-8.5,5.98-2.34,2.49-4.19,5.41-5.49,8.68-1.3,3.26-1.95,6.76-1.95,10.4s.64,7.13,1.91,10.39c1.27,3.27,3.11,6.18,5.46,8.65,2.35,2.47,5.2,4.46,8.47,5.91,3.27,1.45,6.96,2.18,10.94,2.18s7.68-.75,10.98-2.22c3.29-1.47,6.15-3.48,8.5-5.98,2.34-2.49,4.19-5.41,5.49-8.68,1.3-3.26,1.95-6.76,1.95-10.4s-.64-7.13-1.91-10.39c-1.27-3.27-3.11-6.18-5.46-8.65ZM1646.76,948.95c-.94,2.41-2.25,4.53-3.9,6.31-1.64,1.77-3.64,3.19-5.94,4.22-2.3,1.02-4.86,1.54-7.6,1.54s-5.3-.53-7.59-1.58c-2.31-1.05-4.34-2.49-6.03-4.27-1.69-1.78-3.02-3.91-3.96-6.34-.94-2.43-1.42-5.06-1.42-7.83s.48-5.38,1.42-7.79c.94-2.41,2.25-4.53,3.9-6.31,1.64-1.77,3.64-3.19,5.94-4.22,2.3-1.02,4.85-1.54,7.6-1.54s5.29.53,7.59,1.58c2.31,1.05,4.34,2.49,6.03,4.27,1.69,1.78,3.02,3.91,3.96,6.34.94,2.43,1.42,5.07,1.42,7.82s-.48,5.38-1.42,7.79Z"/>
    <path class="cls-2" d="M1706.74,944.89c1.78-.87,3.35-1.97,4.65-3.27,1.32-1.32,2.35-2.89,3.08-4.68.72-1.78,1.09-3.82,1.09-6.06,0-2.41-.47-4.63-1.4-6.62-.93-1.98-2.26-3.71-3.96-5.12-1.68-1.4-3.73-2.5-6.09-3.26-2.34-.75-4.98-1.14-7.87-1.14h-22.79v52.68h7.71v-19.7h12.99l14.7,19.7h9.51l-15.82-21.04c1.48-.36,2.89-.86,4.2-1.5ZM1695.77,940.68h-14.62v-18.65h14.69c3.87,0,6.89.82,8.97,2.44,2.04,1.59,3.03,3.77,3.03,6.67,0,1.48-.29,2.83-.87,3.99-.58,1.17-1.41,2.17-2.44,2.96-1.06.82-2.35,1.46-3.82,1.91-1.5.45-3.16.68-4.94.68Z"/>
    <path class="cls-2" d="M1765.35,942.75c-2.79-2.32-7.13-4.14-12.93-5.43-2.74-.57-5.01-1.18-6.74-1.81-1.68-.61-3-1.29-3.93-2.02-.87-.68-1.47-1.44-1.79-2.24h0c-.34-.84-.51-1.82-.51-2.9,0-1.01.21-1.94.66-2.82.44-.88,1.07-1.64,1.89-2.27.85-.65,1.89-1.19,3.11-1.58,1.22-.4,2.62-.6,4.14-.6,2.48,0,4.89.42,7.16,1.24,2.27.83,4.57,2.18,6.85,4.04l.8.65,4.54-6.02-.76-.6c-2.68-2.11-5.48-3.72-8.35-4.77-2.88-1.06-6.27-1.6-10.08-1.6-2.51,0-4.87.37-6.99,1.11-2.13.74-4.02,1.77-5.59,3.07-1.6,1.32-2.86,2.91-3.74,4.72-.88,1.82-1.33,3.85-1.33,6.02s.37,4.25,1.1,5.91c.74,1.68,1.88,3.17,3.4,4.43,1.48,1.23,3.37,2.28,5.62,3.14,2.19.84,4.79,1.58,7.73,2.22,2.61.57,4.77,1.17,6.44,1.78,1.61.59,2.87,1.24,3.75,1.95.83.66,1.41,1.4,1.73,2.18.34.82.51,1.78.51,2.85,0,2.31-.88,4.12-2.69,5.53-1.87,1.45-4.43,2.18-7.61,2.18-3.37,0-6.38-.57-8.94-1.69-2.59-1.13-5.21-2.89-7.77-5.22l-.76-.69-4.83,5.72.71.64c3.12,2.81,6.45,4.92,9.9,6.26,3.46,1.35,7.32,2.03,11.48,2.03,2.6,0,5.04-.36,7.25-1.06,2.24-.71,4.18-1.75,5.78-3.09,1.61-1.34,2.89-2.99,3.81-4.9.92-1.92,1.39-4.06,1.39-6.38,0-4.21-1.47-7.56-4.38-9.98Z"/>
  </g>
</svg>